<?xml version="1.0" encoding="UTF-8" standalone="no"?>
<!-- Generator: Adobe Illustrator 17.0.0, SVG Export Plug-In . SVG Version: 6.00 Build 0)  -->

<svg
   version="1.1"
   id="Livello_1"
   x="0px"
   y="0px"
   width="356.98199"
   height="193.086"
   viewBox="0 0 356.982 193.086"
   enable-background="new 0 0 356.982 193.086"
   xml:space="preserve"
   xmlns="http://www.w3.org/2000/svg"
   xmlns:svg="http://www.w3.org/2000/svg"><defs
   id="defs43" />
<g
   id="g43">
	<g
   id="g18">
		<path
   fill-rule="evenodd"
   clip-rule="evenodd"
   fill="#3fa535"
   d="m 202.241,117.565 c -3.431,-1.974 -1.571,-10.986 -1.191,-19.651 0.466,-9.971 0.841,-17.792 -3.258,-18.227 -3.691,-0.379 -4.476,4.564 -5.349,9.739 -1.106,6.86 -4.537,16.511 -9.042,16.511 -4.505,0 -5.319,-9.884 -5.407,-13.837 -0.231,-8.257 -8.548,-7.238 -9.071,-0.872 -0.492,6.047 -0.059,13.577 -1.016,21.717 -0.697,5.872 0.348,6.628 1.803,7.675 3.806,2.732 10.319,1.277 15.204,-3.199 1.599,-1.425 2.907,-2.092 3.865,-1.946 1.279,0.175 2.297,1.774 3.372,3.46 0.872,1.394 4.449,6.686 11.34,3.431 1.104,-0.526 1.279,-1.34 1.279,-1.774 0.058,-1.4 -1.425,-2.415 -2.529,-3.027 z"
   id="path1" />
		<path
   fill-rule="evenodd"
   clip-rule="evenodd"
   fill="#007b3d"
   d="m 37.929,89.716 c -6.045,17.122 -7.47,31.195 -4.359,32.035 4.649,1.281 16.249,-16.191 24.186,-28.575 -7.848,2.179 -13.343,-1.308 -19.827,-3.46 z"
   id="path2" />
		<path
   fill-rule="evenodd"
   clip-rule="evenodd"
   fill="#007b3d"
   d="m 78.279,87.943 c 13.84,7.704 17.763,34.71 26.369,31.105 3.372,-1.425 3.199,-14.36 -2.383,-32.762 -3.723,-1.628 -11.222,-3.925 -23.986,1.657 z"
   id="path3" />
		<path
   fill-rule="evenodd"
   clip-rule="evenodd"
   fill="#0075be"
   d="m 67.902,54.278 c 0.989,0 1.862,4.506 3.896,1.832 0.609,-0.843 3.051,-4.856 3.226,-4.856 0.205,0 0.726,1.164 0.873,1.222 -0.117,-0.059 2.763,-5.117 3.17,-5.553 2.936,5.407 4.737,13.896 7.907,18.867 1.83,2.85 11.657,4.129 12.529,5.554 C 94.037,54.802 87.729,36.807 79.21,37.127 67.176,37.564 55.344,54.308 43.568,75.762 c 1.803,0.35 7.125,0.931 9.217,0.379 7.618,-9.71 13.314,-21.863 15.117,-21.863 z"
   id="path4" />
		<path
   fill-rule="evenodd"
   clip-rule="evenodd"
   fill="#fbba00"
   d="m 280.238,63.93 c 6.859,-6.482 -6.686,-31.309 -6.686,-31.309 0,0 -8.023,25.728 -0.756,31.6 1.106,0.902 6.601,0.493 7.442,-0.291 z"
   id="path5" />
		<path
   fill-rule="evenodd"
   clip-rule="evenodd"
   fill="#fbba00"
   d="m 311.344,91.693 c 5.35,-7.529 28.404,1.948 28.404,1.948 0,0 -20.176,11.686 -27.241,6.744 -1.394,-0.989 -1.946,-7.616 -1.163,-8.692 z"
   id="path6" />
		<path
   fill-rule="evenodd"
   clip-rule="evenodd"
   fill="#fbba00"
   d="m 305.326,117.479 c 2.5,7.732 23.403,9.418 23.403,9.418 0,0 -9.273,-16.105 -16.891,-17.559 -2.703,-0.491 -6.86,7.038 -6.512,8.141 z"
   id="path7" />
		<path
   fill-rule="evenodd"
   clip-rule="evenodd"
   fill="#0075be"
   d="m 211.486,85.152 c 3.401,-0.669 9.534,-2.441 14.013,-2.413 2.992,-8.895 4.766,-13.285 2.936,-14.681 -1.454,-1.162 -32.909,1.6 -32.647,3.721 0.667,5.378 13.576,6.367 16.717,8.198 0.956,0.553 0.696,0.931 -1.019,5.175 z"
   id="path8" />
		<path
   fill-rule="evenodd"
   clip-rule="evenodd"
   fill="#0075be"
   d="m 220.816,112.044 c -0.085,-1.426 -1.364,-10.465 0.845,-16.804 -5.087,-0.639 -9.855,-0.35 -12.762,-0.174 -3.779,8.664 -3.926,23.229 -1.338,24.508 11.975,5.988 38.143,21.252 39.158,19.536 0.989,-1.687 -25.729,-23.694 -25.903,-27.066 z"
   id="path9" />
		<path
   fill-rule="evenodd"
   clip-rule="evenodd"
   fill="#0075be"
   d="m 244.307,110.647 c -0.029,-0.553 0.348,-7.209 1.162,-9.651 -3.428,-0.523 -10.465,-2.733 -12.181,-3.141 -2.471,6.251 -5.175,15.495 -3.196,16.483 11.976,5.96 30.467,25.701 31.744,24.074 1.308,-1.63 -17.324,-24.391 -17.529,-27.765 z"
   id="path10" />
		<path
   fill-rule="evenodd"
   clip-rule="evenodd"
   fill="#0075be"
   d="m 231.051,69.6 c 0.408,1.715 8.373,4.651 10.029,5.64 1.074,0.61 -1.047,2.645 -3.547,8.575 4.098,0.669 7.5,1.542 11.979,2.123 3.108,-9.506 5.608,-15.117 2.789,-16.367 -2.181,-0.988 -21.6,-1.483 -21.25,0.029 z"
   id="path11" />
		<path
   fill-rule="evenodd"
   clip-rule="evenodd"
   fill="#d20a11"
   d="m 106.045,81.256 c -3.199,-3.924 -11.63,-9.912 -19.856,-9.912 -19.855,0 -17.095,7.441 -36.225,8.197 -14.766,0.611 -24.507,-10.784 -27.209,-8.197 -2.705,2.586 22.183,29.159 48.985,15.32 19.215,-9.885 31.135,-5.408 35.35,-2.877 1.396,0.814 -0.088,-1.396 -1.045,-2.531 z"
   id="path12" />
		<path
   fill-rule="evenodd"
   clip-rule="evenodd"
   fill="#fbba00"
   d="m 304.106,84.368 c -3.457,-8.78 -12.266,-14.623 -24.797,-14.275 -12.239,0.35 -19.303,8.489 -22.471,18.577 28.664,7.151 41.047,0.581 47.268,-4.302 z"
   id="path13" />
		<path
   fill-rule="evenodd"
   clip-rule="evenodd"
   fill="#fbba00"
   d="m 255.79,102.275 c 0,12.444 7.471,23.17 27.181,21.308 18.693,-1.8 26.427,-16.773 23.228,-30.204 -7.093,7.297 -22.763,15.785 -50.409,8.896 z"
   id="path14" />
		<path
   fill-rule="evenodd"
   clip-rule="evenodd"
   fill="#fbba00"
   d="m 302.361,73.465 c 9.273,-0.116 15.177,-27.966 15.177,-27.966 0,0 -22.589,13.693 -20.962,23.054 0.264,1.425 4.623,4.912 5.785,4.912 z"
   id="path15" />
		<path
   fill-rule="evenodd"
   clip-rule="evenodd"
   fill="#213a8f"
   d="m 208.113,91.781 c -2.327,-3.401 20.204,-8.78 42.182,-2.355 52.97,15.553 58.695,-11.135 59.828,-6.105 0.814,3.546 -15.058,27.297 -56.833,16.134 -32.937,-11.832 -43.839,-5.756 -45.177,-7.674 z"
   id="path16" />
		<path
   fill-rule="evenodd"
   clip-rule="evenodd"
   fill="#007b3d"
   d="m 119.938,85.996 c -0.144,-10.96 0.989,-22.53 1.337,-28.025 0.465,-7.646 -0.872,-14.768 -5.348,-14.768 -4.476,0 -9.042,-0.117 -6.949,9.565 l 2.242,25.116 -0.351,19.1 c 0,0 -0.755,14.013 -0.755,14.071 -0.29,2.646 0.029,7.792 2.819,7.646 2.327,-0.146 4.013,-4.127 7.415,-1.076 5.697,5.088 29.332,4.855 27.994,-18.838 -0.726,-13.198 -15.407,-15 -19.244,-14.099 -3.838,0.872 -7.995,2.733 -3.343,3.837 3.519,0.843 8.141,-0.291 11.888,4.68 5.816,7.792 -3.314,15.931 -8.66,15.351 -11.572,-1.251 -8.899,-9.886 -9.045,-22.56 z"
   id="path17" />
		<path
   fill-rule="evenodd"
   clip-rule="evenodd"
   fill="#3fa535"
   d="m 150.756,74.658 c 0,0 4.011,20.116 -0.583,43.199 -0.901,4.622 11.048,5.931 10.495,-0.029 -0.29,-2.763 0.931,-18.49 2.412,-28.838 0.872,-6.134 5.874,-7.908 13.316,-5.728 3.955,1.162 6.045,-10.582 -7.151,-10.232 -5.351,0.116 -6.191,3.954 -8.053,2.528 -1.019,-0.785 -1.686,-2.268 -2.181,-3.4 -2.965,-6.717 -8.082,-3.169 -8.255,2.5 z"
   id="path18" />
	</g>
	<g
   id="g42"
   style="fill:#ffffff">
		<path
   d="m 35.352,158.904 c 0.975,-1.966 3.192,-6.618 5.251,-6.618 0.997,0 1.308,1.16 1.308,2.215 0,0.803 -0.156,1.607 -0.355,2.355 l -0.685,2.823 c 0.753,-1.688 1.506,-3.406 2.503,-4.873 0.709,-1.053 2.127,-2.52 3.302,-2.52 0.863,0 1.394,0.607 1.394,1.66 0,0.914 -0.266,1.857 -0.487,2.717 l -1.662,5.703 c -0.109,0.361 -0.175,0.583 -0.175,0.973 0,0.275 0.109,0.523 0.353,0.523 0.709,0 1.928,-2.16 2.283,-2.853 0.044,-0.083 0.11,-0.222 0.2,-0.222 0.11,0 0.176,0.082 0.176,0.195 0,0.499 -0.863,1.801 -1.107,2.131 -0.556,0.805 -1.73,2.189 -2.658,2.189 -0.644,0 -0.865,-0.497 -0.865,-1.245 0,-0.83 0.4,-2.19 0.622,-2.992 l 1.15,-3.988 c 0.2,-0.639 0.578,-1.969 0.578,-2.632 0,-0.665 -0.244,-0.916 -0.731,-0.916 -1.109,0 -2.571,2.412 -3.124,3.436 -0.996,1.827 -2.283,4.878 -2.792,6.981 -0.2,0.859 -0.134,1.025 -0.909,1.025 -0.156,0 -0.753,0.111 -0.753,-0.305 0,-0.109 0.156,-0.694 0.178,-0.805 l 1.837,-7.533 c 0.134,-0.526 0.312,-1.221 0.312,-1.771 0,-0.526 -0.178,-0.999 -0.643,-0.999 -0.885,0 -2.259,2.134 -2.702,2.853 -1.175,1.94 -2.593,5.154 -3.148,7.479 -0.263,1.053 -0.153,1.082 -0.928,1.082 -0.222,0 -0.709,0.111 -0.709,-0.332 0,-0.25 0.088,-0.582 0.131,-0.804 l 1.971,-8.007 c 0.112,-0.496 0.246,-0.996 0.246,-1.522 0,-0.192 -0.065,-0.499 -0.268,-0.499 -0.509,0 -1.637,1.635 -1.905,2.134 -0.087,0.166 -0.266,0.556 -0.441,0.556 -0.112,0 -0.156,-0.112 -0.156,-0.225 0,-0.305 0.931,-1.661 1.108,-1.883 0.597,-0.748 1.75,-2.104 2.658,-2.104 0.553,0 0.597,0.775 0.597,1.302 0,0.745 -0.153,1.52 -0.332,2.241 l -0.909,3.685 z"
   id="path19"
   style="fill:#ffffff" />
		<path
   d="m 59.847,153.005 c 0.197,-0.859 0.175,-0.996 0.909,-0.996 0.132,0 0.753,-0.139 0.753,0.248 0,0.137 -0.09,0.443 -0.112,0.554 l -2.281,9.364 c -0.068,0.219 -0.178,0.662 -0.178,0.91 0,0.225 0.044,0.418 0.222,0.418 0.553,0 1.596,-1.745 1.862,-2.272 0.066,-0.139 0.222,-0.5 0.375,-0.5 0.087,0 0.156,0.112 0.156,0.225 0,0.497 -0.909,1.939 -1.174,2.298 -0.553,0.748 -1.749,2.049 -2.637,2.049 -0.399,0 -0.599,-0.331 -0.599,-0.804 0,-0.526 0.134,-1.08 0.244,-1.55 l 1.352,-5.485 c -1.24,2.549 -4.208,7.839 -6.822,7.839 -1.243,0 -1.752,-1.496 -1.752,-2.851 0,-2.356 1.287,-5.153 2.549,-6.815 1.352,-1.773 3.345,-3.351 5.36,-3.351 0.755,0 1.243,0.22 1.708,0.968 z m -1.818,-0.194 c -1.618,0 -3.189,1.939 -4.12,3.462 -0.843,1.331 -2.015,4.128 -2.015,5.873 0,0.774 0.309,1.69 1.018,1.69 1.35,0 3.323,-2.966 4.098,-4.184 0.619,-0.968 2.437,-4.128 2.437,-5.401 0,-1.023 -0.665,-1.44 -1.418,-1.44 z"
   id="path20"
   style="fill:#ffffff" />
		<path
   d="m 73.506,149.294 c 0.066,-0.224 0.222,-0.887 0.222,-1.135 0,-0.639 -0.487,-0.694 -0.865,-0.694 l -0.355,0.026 c -0.154,0 -0.263,-0.109 -0.263,-0.302 0,-0.39 0.443,-0.36 0.662,-0.36 0.887,-0.057 1.818,-0.361 2.549,-1.053 0.043,-0.029 0.134,-0.112 0.2,-0.112 0.109,0 0.175,0.112 0.175,0.249 0,0.141 -0.109,0.555 -0.131,0.667 l -3.789,15.456 c -0.088,0.33 -0.222,0.719 -0.222,1.107 0,0.22 0.09,0.471 0.31,0.471 0.533,0 1.664,-1.939 1.927,-2.521 0.09,-0.137 0.18,-0.361 0.334,-0.361 0.088,0 0.11,0.112 0.11,0.195 0,0.5 -0.685,1.635 -0.909,1.969 -0.531,0.802 -1.793,2.407 -2.724,2.407 -0.553,0 -0.687,-0.443 -0.687,-1.079 0,-0.748 0.222,-1.718 0.399,-2.439 l 0.887,-3.628 c -1.33,2.3 -3.811,7.146 -6.337,7.146 -1.375,0 -1.905,-1.689 -1.905,-3.157 0,-2.52 1.308,-5.207 2.727,-6.896 1.372,-1.635 3.411,-2.963 5.316,-2.963 0.597,0 1.13,0.249 1.418,0.912 z m -2.548,3.49 c -1.572,0 -3.324,1.827 -4.254,3.294 -0.953,1.555 -1.949,4.044 -1.949,6.04 0,0.86 0.2,1.828 1.019,1.828 1.53,0 3.436,-3.076 4.254,-4.433 0.599,-1.023 2.239,-4.099 2.239,-5.372 -10e-4,-0.887 -0.666,-1.357 -1.309,-1.357 z"
   id="path21"
   style="fill:#ffffff" />
		<path
   d="m 77.617,160.265 v 0.635 c 0,1.828 0.775,3.185 2.349,3.185 1.284,0 2.746,-1.219 3.477,-2.519 0.066,-0.112 0.134,-0.222 0.244,-0.222 0.112,0 0.156,0.056 0.156,0.192 0,0.248 -0.465,0.916 -0.578,1.082 -1.062,1.467 -2.568,2.685 -4.186,2.685 -1.996,0 -3.189,-1.964 -3.189,-4.347 0,-4.267 3.345,-8.67 6.778,-8.67 1.24,0 2.568,0.885 2.568,2.632 0,4.016 -4.917,4.542 -7.287,4.874 l -0.288,0.056 z m 5.316,-3.3 c 0.444,-0.719 0.753,-1.661 0.753,-2.575 0,-1.025 -0.487,-1.579 -1.306,-1.579 -2.461,0 -4.123,3.879 -4.632,6.481 1.618,-0.164 4.167,-0.666 5.185,-2.327 z"
   id="path22"
   style="fill:#ffffff" />
		<path
   d="m 95.297,155.333 c 0.044,-0.225 0.178,-0.692 0.178,-0.943 0,-0.222 -0.044,-0.5 -0.268,-0.5 -0.751,0 -1.993,2.439 -2.281,2.439 -0.088,0 -0.134,-0.083 -0.134,-0.222 0,-0.36 0.909,-1.579 1.086,-1.801 0.556,-0.665 1.771,-2.021 2.615,-2.021 0.531,0 0.687,0.414 0.687,1.023 0,0.527 -0.266,1.523 -0.375,2.023 l -1.642,6.646 c -0.088,0.36 -0.197,0.748 -0.197,1.105 0,0.278 0.087,0.502 0.288,0.502 0.553,0 1.684,-1.969 1.949,-2.521 0.065,-0.166 0.156,-0.36 0.309,-0.36 0.112,0 0.134,0.083 0.134,0.194 0,0.471 -0.709,1.606 -0.931,1.967 -0.534,0.831 -1.771,2.437 -2.702,2.437 -0.578,0 -0.688,-0.47 -0.688,-1.107 0,-0.721 0.244,-1.773 0.397,-2.438 z m 1.905,-4.82 c -0.465,0 -0.688,-0.5 -0.688,-1.025 0,-0.719 0.487,-1.771 1.131,-1.771 0.443,0 0.731,0.443 0.731,0.97 10e-4,0.773 -0.487,1.826 -1.174,1.826 z"
   id="path23"
   style="fill:#ffffff" />
		<path
   d="m 108.691,161.784 c -0.09,0.361 -0.334,1.026 -0.334,1.414 0,0.36 0.156,0.555 0.421,0.555 0.709,0 1.949,-1.94 2.327,-2.631 0.044,-0.112 0.134,-0.278 0.266,-0.278 0.066,0 0.154,0.083 0.154,0.195 0,0.36 -0.819,1.632 -0.997,1.857 -0.575,0.802 -1.906,2.407 -2.812,2.407 -0.665,0 -0.953,-0.443 -0.953,-1.245 0,-0.943 0.332,-2.107 0.597,-2.965 l 1.574,-5.234 c 0.132,-0.473 0.31,-0.998 0.31,-1.496 0,-0.609 -0.266,-0.969 -0.775,-0.969 -1.174,0 -2.57,2.049 -3.258,3.045 -1.174,1.744 -2.858,5.429 -3.411,7.593 -0.178,0.802 -0.2,0.94 -0.909,0.94 -0.222,0 -0.687,0.139 -0.687,-0.332 0,-0.141 0.09,-0.499 0.134,-0.638 l 1.971,-8.061 c 0.112,-0.443 0.266,-1.053 0.266,-1.525 0,-0.358 -0.11,-0.663 -0.443,-0.663 -0.575,0 -1.794,1.857 -2.059,2.438 -0.044,0.139 -0.112,0.307 -0.244,0.307 -0.09,0 -0.178,-0.059 -0.178,-0.195 0,-0.307 0.775,-1.578 0.953,-1.801 0.553,-0.83 1.706,-2.215 2.636,-2.215 0.687,0 0.909,0.551 0.909,1.355 0,0.804 -0.2,1.691 -0.378,2.437 l -0.953,3.852 c 1.262,-2.771 3.854,-7.645 6.713,-7.645 0.753,0 1.374,0.551 1.374,1.551 0,0.638 -0.244,1.439 -0.421,2.021 z"
   id="path24"
   style="fill:#ffffff" />
		<path
   d="m 128.941,161.784 c -0.09,0.361 -0.333,1.026 -0.333,1.414 0,0.36 0.156,0.555 0.421,0.555 0.709,0 1.949,-1.94 2.327,-2.631 0.044,-0.112 0.132,-0.278 0.266,-0.278 0.066,0 0.156,0.083 0.156,0.195 0,0.36 -0.821,1.632 -0.997,1.857 -0.578,0.802 -1.905,2.407 -2.814,2.407 -0.665,0 -0.953,-0.443 -0.953,-1.245 0,-0.943 0.331,-2.107 0.597,-2.965 l 1.574,-5.234 c 0.132,-0.473 0.31,-0.998 0.31,-1.496 0,-0.609 -0.266,-0.969 -0.775,-0.969 -1.174,0 -2.57,2.049 -3.258,3.045 -1.174,1.744 -2.858,5.429 -3.411,7.593 -0.178,0.802 -0.2,0.94 -0.909,0.94 -0.222,0 -0.687,0.139 -0.687,-0.332 0,-0.141 0.09,-0.499 0.134,-0.638 l 1.971,-8.061 c 0.112,-0.443 0.266,-1.053 0.266,-1.525 0,-0.358 -0.11,-0.663 -0.441,-0.663 -0.578,0 -1.796,1.857 -2.062,2.438 -0.044,0.139 -0.112,0.307 -0.244,0.307 -0.088,0 -0.178,-0.059 -0.178,-0.195 0,-0.307 0.775,-1.578 0.953,-1.801 0.556,-0.83 1.706,-2.215 2.636,-2.215 0.688,0 0.909,0.551 0.909,1.355 0,0.804 -0.2,1.691 -0.378,2.437 l -0.953,3.852 c 1.265,-2.771 3.854,-7.645 6.713,-7.645 0.753,0 1.374,0.551 1.374,1.551 0,0.638 -0.244,1.439 -0.421,2.021 z"
   id="path25"
   style="fill:#ffffff" />
		<path
   d="m 142.866,153.005 c 0.2,-0.859 0.175,-0.996 0.909,-0.996 0.132,0 0.753,-0.139 0.753,0.248 0,0.137 -0.09,0.443 -0.112,0.554 l -2.281,9.364 c -0.068,0.219 -0.178,0.662 -0.178,0.91 0,0.225 0.044,0.418 0.222,0.418 0.553,0 1.596,-1.745 1.861,-2.272 0.066,-0.139 0.222,-0.5 0.375,-0.5 0.09,0 0.156,0.112 0.156,0.225 0,0.497 -0.909,1.939 -1.174,2.298 -0.553,0.748 -1.749,2.049 -2.637,2.049 -0.399,0 -0.597,-0.331 -0.597,-0.804 0,-0.526 0.131,-1.08 0.244,-1.55 l 1.35,-5.485 c -1.24,2.549 -4.208,7.839 -6.822,7.839 -1.243,0 -1.752,-1.496 -1.752,-2.851 0,-2.356 1.287,-5.153 2.549,-6.815 1.352,-1.773 3.345,-3.351 5.36,-3.351 0.755,0 1.243,0.22 1.708,0.968 z m -1.818,-0.194 c -1.618,0 -3.189,1.939 -4.12,3.462 -0.841,1.331 -2.015,4.128 -2.015,5.873 0,0.774 0.31,1.69 1.019,1.69 1.353,0 3.324,-2.966 4.098,-4.184 0.622,-0.968 2.437,-4.128 2.437,-5.401 0,-1.023 -0.666,-1.44 -1.419,-1.44 z"
   id="path26"
   style="fill:#ffffff" />
		<path
   d="m 148.307,161.784 c -0.09,0.334 -0.266,0.971 -0.266,1.33 0,0.278 0.088,0.583 0.354,0.583 0.531,0 1.352,-1.331 1.662,-1.854 0.088,-0.195 0.31,-0.555 0.397,-0.75 0.068,-0.137 0.134,-0.332 0.246,-0.332 0.11,0 0.176,0.109 0.176,0.223 0,0.305 -0.531,1.218 -0.665,1.439 -0.553,0.94 -1.925,2.88 -2.946,2.88 -0.619,0 -0.819,-0.828 -0.819,-1.467 0,-0.751 0.244,-1.69 0.422,-2.383 l 1.971,-8.031 h -1.262 c -0.112,0 -0.512,0.054 -0.512,-0.224 0,-0.526 0.268,-0.498 0.6,-0.498 h 1.328 l 0.731,-2.965 c 0.134,-0.387 0.512,-0.305 0.777,-0.305 0.153,0 0.709,-0.111 0.709,0.249 0,0.194 -0.09,0.556 -0.134,0.722 L 150.5,152.7 h 1.662 c 0.044,0 0.487,-0.082 0.487,0.166 0,0.139 -0.022,0.195 -0.09,0.388 -0.066,0.192 -0.376,0.168 -0.509,0.168 h -1.706 z"
   id="path27"
   style="fill:#ffffff" />
		<path
   d="m 161.321,158.183 c -0.997,1.857 -1.662,3.105 -3.011,4.628 -0.953,1.079 -2.459,2.492 -3.811,2.492 -0.709,0 -0.953,-0.608 -0.953,-1.44 0,-0.664 0.244,-1.605 0.421,-2.244 l 1.728,-6.285 c 0.066,-0.249 0.244,-0.805 0.244,-1.082 0,-0.249 -0.066,-0.471 -0.31,-0.471 -0.577,0 -1.574,1.635 -1.861,2.161 -0.088,0.166 -0.288,0.609 -0.487,0.609 -0.088,0 -0.112,-0.054 -0.112,-0.166 0,-0.473 0.977,-1.969 1.199,-2.271 0.509,-0.639 1.616,-1.828 2.437,-1.828 0.553,0 0.709,0.637 0.709,1.219 0,0.58 -0.178,1.271 -0.334,1.828 l -1.771,6.617 c -0.09,0.36 -0.244,0.945 -0.244,1.33 0,0.473 0.2,0.777 0.597,0.777 1.043,0 2.88,-2.273 3.501,-3.188 1.527,-2.186 2.636,-4.65 3.301,-7.424 0.266,-1.023 0.088,-1.16 0.931,-1.16 0.176,0 0.753,-0.141 0.753,0.275 0,0.193 -0.09,0.5 -0.134,0.666 l -2.149,8.781 c -0.066,0.331 -0.2,0.828 -0.2,1.162 0,0.248 0.112,0.553 0.355,0.553 0.753,0 1.971,-1.992 2.325,-2.74 0.068,-0.113 0.156,-0.305 0.268,-0.305 0.087,0 0.153,0.082 0.153,0.191 0,0.389 -0.953,1.885 -1.128,2.133 -0.644,0.916 -1.996,2.3 -3.036,2.3 -0.465,0 -0.6,-0.553 -0.6,-1.023 0,-0.693 0.244,-1.774 0.4,-2.437 l 0.975,-3.936 z"
   id="path28"
   style="fill:#ffffff" />
		<path
   d="m 169.245,155.912 c 0.11,-0.497 0.266,-1.107 0.266,-1.605 0,-0.249 -0.046,-0.583 -0.29,-0.583 -0.509,0 -1.372,1.385 -1.637,1.857 l -0.2,0.36 c -0.066,0.112 -0.2,0.415 -0.334,0.415 -0.087,0 -0.153,-0.084 -0.153,-0.195 0,-0.441 0.909,-1.771 1.128,-2.076 0.465,-0.663 1.486,-1.799 2.217,-1.799 0.665,0 0.819,1.023 0.819,1.633 0,0.666 -0.154,1.274 -0.31,1.884 l -0.953,3.905 c 0.819,-1.827 2.99,-7.422 4.895,-7.422 0.666,0 1.109,0.524 1.109,1.385 0,0.745 -0.356,1.633 -1.019,1.633 -1.109,0 -0.49,-1.358 -1.087,-1.358 -0.597,0 -1.949,2.492 -2.193,2.992 -0.821,1.605 -2.259,5.012 -2.68,6.785 -0.244,1.026 -0.178,1.248 -1.065,1.248 -0.2,0 -0.619,0.054 -0.619,-0.361 0,-0.136 0.131,-0.664 0.156,-0.774 z"
   id="path29"
   style="fill:#ffffff" />
		<path
   d="m 176.988,160.265 v 0.635 c 0,1.828 0.775,3.185 2.349,3.185 1.284,0 2.746,-1.219 3.478,-2.519 0.065,-0.112 0.131,-0.222 0.243,-0.222 0.112,0 0.156,0.056 0.156,0.192 0,0.248 -0.466,0.916 -0.577,1.082 -1.062,1.467 -2.571,2.685 -4.186,2.685 -1.996,0 -3.192,-1.964 -3.192,-4.347 0,-4.267 3.345,-8.67 6.779,-8.67 1.242,0 2.572,0.885 2.572,2.632 0,4.016 -4.919,4.542 -7.29,4.874 l -0.288,0.056 z m 5.317,-3.3 c 0.443,-0.719 0.753,-1.661 0.753,-2.575 0,-1.025 -0.487,-1.579 -1.306,-1.579 -2.461,0 -4.123,3.879 -4.632,6.481 1.618,-0.164 4.167,-0.666 5.185,-2.327 z"
   id="path30"
   style="fill:#ffffff" />
		<path
   d="m 184.71,169.126 c 0.575,-0.5 1.084,-1.08 1.462,-1.771 0.199,-0.39 0.574,-1.193 0.574,-1.691 0,-0.277 -0.064,-0.443 -0.287,-0.443 -0.134,0 -0.266,0.083 -0.422,0.083 -0.375,0 -0.596,-0.497 -0.596,-0.94 0,-0.804 0.531,-1.467 1.174,-1.467 0.685,0 0.975,0.828 0.975,1.55 0,1.579 -0.844,3.184 -1.728,4.239 -0.243,0.275 -1.043,1.136 -1.44,1.136 -0.09,0 -0.178,-0.029 -0.178,-0.168 0,-0.166 0.132,-0.249 0.244,-0.36 z"
   id="path31"
   style="fill:#ffffff" />
		<path
   d="m 201.903,158.904 c 0.975,-1.966 3.189,-6.618 5.251,-6.618 0.997,0 1.306,1.16 1.306,2.215 0,0.803 -0.153,1.607 -0.354,2.355 l -0.686,2.823 c 0.753,-1.688 1.506,-3.406 2.503,-4.873 0.709,-1.053 2.127,-2.52 3.301,-2.52 0.865,0 1.396,0.607 1.396,1.66 0,0.914 -0.266,1.857 -0.487,2.717 l -1.662,5.703 c -0.109,0.361 -0.178,0.583 -0.178,0.973 0,0.275 0.112,0.523 0.356,0.523 0.709,0 1.927,-2.16 2.279,-2.853 0.047,-0.083 0.113,-0.222 0.201,-0.222 0.111,0 0.178,0.082 0.178,0.195 0,0.499 -0.865,1.801 -1.109,2.131 -0.553,0.805 -1.728,2.189 -2.658,2.189 -0.643,0 -0.862,-0.497 -0.862,-1.245 0,-0.83 0.397,-2.19 0.618,-2.992 l 1.153,-3.988 c 0.2,-0.639 0.575,-1.969 0.575,-2.632 0,-0.665 -0.244,-0.916 -0.731,-0.916 -1.106,0 -2.568,2.412 -3.124,3.436 -0.996,1.827 -2.28,4.878 -2.789,6.981 -0.2,0.859 -0.135,1.025 -0.909,1.025 -0.156,0 -0.755,0.111 -0.755,-0.305 0,-0.109 0.158,-0.694 0.18,-0.805 l 1.838,-7.533 c 0.133,-0.526 0.309,-1.221 0.309,-1.771 0,-0.526 -0.176,-0.999 -0.641,-0.999 -0.887,0 -2.262,2.134 -2.705,2.853 -1.172,1.94 -2.59,5.154 -3.145,7.479 -0.266,1.053 -0.156,1.082 -0.932,1.082 -0.222,0 -0.709,0.111 -0.709,-0.332 0,-0.25 0.09,-0.582 0.135,-0.804 l 1.971,-8.007 c 0.111,-0.496 0.244,-0.996 0.244,-1.522 0,-0.192 -0.066,-0.499 -0.266,-0.499 -0.51,0 -1.641,1.635 -1.906,2.134 -0.088,0.166 -0.266,0.556 -0.443,0.556 -0.109,0 -0.156,-0.112 -0.156,-0.225 0,-0.305 0.932,-1.661 1.109,-1.883 0.6,-0.748 1.749,-2.104 2.658,-2.104 0.556,0 0.6,0.775 0.6,1.302 0,0.745 -0.156,1.52 -0.332,2.241 l -0.908,3.685 z"
   id="path32"
   style="fill:#ffffff" />
		<path
   d="m 226.395,153.005 c 0.2,-0.859 0.178,-0.996 0.909,-0.996 0.132,0 0.753,-0.139 0.753,0.248 0,0.137 -0.088,0.443 -0.109,0.554 l -2.283,9.364 c -0.066,0.219 -0.178,0.662 -0.178,0.91 0,0.225 0.044,0.418 0.222,0.418 0.556,0 1.596,-1.745 1.861,-2.272 0.068,-0.139 0.222,-0.5 0.378,-0.5 0.088,0 0.156,0.112 0.156,0.225 0,0.497 -0.909,1.939 -1.178,2.298 -0.553,0.748 -1.749,2.049 -2.636,2.049 -0.397,0 -0.597,-0.331 -0.597,-0.804 0,-0.526 0.131,-1.08 0.243,-1.55 l 1.353,-5.485 c -1.242,2.549 -4.211,7.839 -6.825,7.839 -1.24,0 -1.749,-1.496 -1.749,-2.851 0,-2.356 1.283,-5.153 2.549,-6.815 1.35,-1.773 3.342,-3.351 5.359,-3.351 0.754,0 1.24,0.22 1.706,0.968 z m -1.815,-0.194 c -1.618,0 -3.192,1.939 -4.123,3.462 -0.841,1.331 -2.016,4.128 -2.016,5.873 0,0.774 0.311,1.69 1.019,1.69 1.352,0 3.323,-2.966 4.098,-4.184 0.621,-0.968 2.439,-4.128 2.439,-5.401 10e-4,-1.023 -0.665,-1.44 -1.417,-1.44 z"
   id="path33"
   style="fill:#ffffff" />
		<path
   d="m 240.055,149.294 c 0.068,-0.224 0.222,-0.887 0.222,-1.135 0,-0.639 -0.487,-0.694 -0.865,-0.694 l -0.352,0.026 c -0.156,0 -0.266,-0.109 -0.266,-0.302 0,-0.39 0.443,-0.36 0.664,-0.36 0.885,-0.057 1.816,-0.361 2.549,-1.053 0.045,-0.029 0.132,-0.112 0.197,-0.112 0.113,0 0.178,0.112 0.178,0.249 0,0.141 -0.111,0.555 -0.133,0.667 l -3.789,15.456 c -0.088,0.33 -0.22,0.719 -0.22,1.107 0,0.22 0.088,0.471 0.31,0.471 0.531,0 1.662,-1.939 1.928,-2.521 0.09,-0.137 0.178,-0.361 0.331,-0.361 0.09,0 0.112,0.112 0.112,0.195 0,0.5 -0.687,1.635 -0.909,1.969 -0.531,0.802 -1.794,2.407 -2.724,2.407 -0.557,0 -0.688,-0.443 -0.688,-1.079 0,-0.748 0.222,-1.718 0.396,-2.439 l 0.888,-3.628 c -1.331,2.3 -3.811,7.146 -6.335,7.146 -1.375,0 -1.906,-1.689 -1.906,-3.157 0,-2.52 1.307,-5.207 2.725,-6.896 1.374,-1.635 3.411,-2.963 5.316,-2.963 0.6,0 1.131,0.249 1.418,0.912 z m -2.547,3.49 c -1.573,0 -3.322,1.827 -4.254,3.294 -0.953,1.555 -1.949,4.044 -1.949,6.04 0,0.86 0.199,1.828 1.019,1.828 1.528,0 3.433,-3.076 4.255,-4.433 0.597,-1.023 2.236,-4.099 2.236,-5.372 0,-0.887 -0.665,-1.357 -1.307,-1.357 z"
   id="path34"
   style="fill:#ffffff" />
		<path
   d="m 244.165,160.265 v 0.635 c 0,1.828 0.774,3.185 2.349,3.185 1.284,0 2.749,-1.219 3.48,-2.519 0.064,-0.112 0.131,-0.222 0.243,-0.222 0.109,0 0.153,0.056 0.153,0.192 0,0.248 -0.465,0.916 -0.575,1.082 -1.064,1.467 -2.57,2.685 -4.188,2.685 -1.993,0 -3.189,-1.964 -3.189,-4.347 0,-4.267 3.346,-8.67 6.779,-8.67 1.24,0 2.57,0.885 2.57,2.632 0,4.016 -4.918,4.542 -7.288,4.874 l -0.288,0.056 z m 5.318,-3.3 c 0.443,-0.719 0.755,-1.661 0.755,-2.575 0,-1.025 -0.487,-1.579 -1.309,-1.579 -2.458,0 -4.12,3.879 -4.63,6.481 1.618,-0.164 4.164,-0.666 5.184,-2.327 z"
   id="path35"
   style="fill:#ffffff" />
		<path
   d="m 261.848,155.333 c 0.044,-0.225 0.176,-0.692 0.176,-0.943 0,-0.222 -0.045,-0.5 -0.266,-0.5 -0.754,0 -1.994,2.439 -2.281,2.439 -0.09,0 -0.134,-0.083 -0.134,-0.222 0,-0.36 0.909,-1.579 1.087,-1.801 0.553,-0.665 1.772,-2.021 2.611,-2.021 0.534,0 0.69,0.414 0.69,1.023 0,0.527 -0.268,1.523 -0.377,2.023 l -1.641,6.646 c -0.09,0.36 -0.199,0.748 -0.199,1.105 0,0.278 0.088,0.502 0.29,0.502 0.554,0 1.681,-1.969 1.949,-2.521 0.065,-0.166 0.153,-0.36 0.31,-0.36 0.111,0 0.134,0.083 0.134,0.194 0,0.471 -0.712,1.606 -0.931,1.967 -0.533,0.831 -1.773,2.437 -2.705,2.437 -0.574,0 -0.687,-0.47 -0.687,-1.107 0,-0.721 0.243,-1.773 0.399,-2.438 z m 1.905,-4.82 c -0.466,0 -0.689,-0.5 -0.689,-1.025 0,-0.719 0.487,-1.771 1.133,-1.771 0.44,0 0.729,0.443 0.729,0.97 -10e-4,0.773 -0.488,1.826 -1.173,1.826 z"
   id="path36"
   style="fill:#ffffff" />
		<path
   d="m 275.239,161.784 c -0.088,0.361 -0.331,1.026 -0.331,1.414 0,0.36 0.152,0.555 0.421,0.555 0.706,0 1.949,-1.94 2.325,-2.631 0.046,-0.112 0.133,-0.278 0.266,-0.278 0.067,0 0.155,0.083 0.155,0.195 0,0.36 -0.819,1.632 -0.997,1.857 -0.574,0.802 -1.904,2.407 -2.814,2.407 -0.664,0 -0.952,-0.443 -0.952,-1.245 0,-0.943 0.331,-2.107 0.6,-2.965 l 1.571,-5.234 c 0.135,-0.473 0.312,-0.998 0.312,-1.496 0,-0.609 -0.268,-0.969 -0.777,-0.969 -1.175,0 -2.568,2.049 -3.256,3.045 -1.174,1.744 -2.857,5.429 -3.411,7.593 -0.178,0.802 -0.2,0.94 -0.909,0.94 -0.221,0 -0.687,0.139 -0.687,-0.332 0,-0.141 0.088,-0.499 0.134,-0.638 l 1.971,-8.061 c 0.11,-0.443 0.266,-1.053 0.266,-1.525 0,-0.358 -0.111,-0.663 -0.443,-0.663 -0.574,0 -1.793,1.857 -2.061,2.438 -0.044,0.139 -0.109,0.307 -0.244,0.307 -0.088,0 -0.178,-0.059 -0.178,-0.195 0,-0.307 0.777,-1.578 0.953,-1.801 0.555,-0.83 1.707,-2.215 2.637,-2.215 0.686,0 0.908,0.551 0.908,1.355 0,0.804 -0.197,1.691 -0.375,2.437 l -0.953,3.852 c 1.262,-2.771 3.855,-7.645 6.713,-7.645 0.753,0 1.372,0.551 1.372,1.551 0,0.638 -0.241,1.439 -0.419,2.021 z"
   id="path37"
   style="fill:#ffffff" />
		<path
   d="m 289.242,161.427 c -0.109,0.44 -0.465,1.717 -0.465,2.16 0,0.829 0.621,0.803 1.086,0.803 0.222,0 0.666,-0.057 0.666,0.36 0,0.304 -0.223,0.333 -0.422,0.333 -0.865,-0.029 -1.75,-0.084 -2.615,-0.111 -0.686,0.027 -1.373,0.082 -2.06,0.111 -0.178,0 -0.688,0.137 -0.688,-0.224 0,-0.414 0.312,-0.497 0.556,-0.47 0.375,0.056 0.884,0.026 1.196,-0.275 0.422,-0.417 0.598,-1.304 0.753,-1.913 l 2.858,-11.635 c 0.065,-0.331 0.266,-1.023 0.266,-1.384 0,-0.805 -0.619,-0.775 -1.375,-0.775 -0.243,0.027 -0.553,-0.056 -0.553,-0.473 0,-0.36 0.51,-0.219 0.688,-0.219 0.688,0.026 1.371,0.082 2.059,0.109 0.865,-0.027 1.752,-0.083 2.614,-0.109 0.2,0 0.422,0.026 0.422,0.331 0,0.414 -0.443,0.36 -0.665,0.36 -1.219,0.054 -1.35,0.828 -1.684,2.159 z"
   id="path38"
   style="fill:#ffffff" />
		<path
   d="m 295.279,161.784 c -0.087,0.334 -0.265,0.971 -0.265,1.33 0,0.278 0.087,0.583 0.353,0.583 0.534,0 1.354,-1.331 1.664,-1.854 0.088,-0.195 0.311,-0.555 0.398,-0.75 0.067,-0.137 0.133,-0.332 0.243,-0.332 0.112,0 0.178,0.109 0.178,0.223 0,0.305 -0.531,1.218 -0.665,1.439 -0.553,0.94 -1.928,2.88 -2.945,2.88 -0.622,0 -0.822,-0.828 -0.822,-1.467 0,-0.751 0.244,-1.69 0.422,-2.383 l 1.971,-8.031 h -1.262 c -0.109,0 -0.51,0.054 -0.51,-0.224 0,-0.526 0.266,-0.498 0.598,-0.498 h 1.33 l 0.732,-2.965 c 0.134,-0.387 0.509,-0.305 0.774,-0.305 0.156,0 0.709,-0.111 0.709,0.249 0,0.194 -0.088,0.556 -0.131,0.722 l -0.578,2.299 h 1.662 c 0.044,0 0.487,-0.082 0.487,0.166 0,0.139 -0.023,0.195 -0.088,0.388 -0.065,0.192 -0.378,0.168 -0.509,0.168 h -1.706 z"
   id="path39"
   style="fill:#ffffff" />
		<path
   d="m 309.205,153.005 c 0.199,-0.859 0.178,-0.996 0.908,-0.996 0.133,0 0.754,-0.139 0.754,0.248 0,0.137 -0.088,0.443 -0.109,0.554 l -2.283,9.364 c -0.066,0.219 -0.178,0.662 -0.178,0.91 0,0.225 0.046,0.418 0.221,0.418 0.554,0 1.596,-1.745 1.861,-2.272 0.066,-0.139 0.223,-0.5 0.379,-0.5 0.087,0 0.152,0.112 0.152,0.225 0,0.497 -0.908,1.939 -1.174,2.298 -0.553,0.748 -1.75,2.049 -2.637,2.049 -0.399,0 -0.597,-0.331 -0.597,-0.804 0,-0.526 0.132,-1.08 0.243,-1.55 l 1.351,-5.485 c -1.24,2.549 -4.208,7.839 -6.823,7.839 -1.24,0 -1.749,-1.496 -1.749,-2.851 0,-2.356 1.284,-5.153 2.546,-6.815 1.354,-1.773 3.346,-3.351 5.363,-3.351 0.75,0 1.24,0.22 1.705,0.968 z m -1.815,-0.194 c -1.618,0 -3.192,1.939 -4.122,3.462 -0.844,1.331 -2.016,4.128 -2.016,5.873 0,0.774 0.31,1.69 1.018,1.69 1.353,0 3.323,-2.966 4.099,-4.184 0.621,-0.968 2.439,-4.128 2.439,-5.401 0.001,-1.023 -0.667,-1.44 -1.418,-1.44 z"
   id="path40"
   style="fill:#ffffff" />
		<path
   d="m 316.153,149.294 c 0.065,-0.25 0.221,-0.887 0.221,-1.135 0,-0.639 -0.486,-0.694 -0.864,-0.694 l -0.354,0.026 c -0.155,0 -0.266,-0.109 -0.266,-0.302 0,-0.39 0.44,-0.36 0.663,-0.36 0.887,-0.057 1.817,-0.361 2.549,-1.053 0.043,-0.029 0.131,-0.112 0.199,-0.112 0.109,0 0.176,0.112 0.176,0.249 0,0.141 -0.109,0.555 -0.132,0.667 l -3.789,15.456 c -0.087,0.33 -0.222,0.719 -0.222,1.107 0,0.22 0.09,0.471 0.312,0.471 0.531,0 1.661,-1.939 1.924,-2.521 0.068,-0.137 0.156,-0.361 0.334,-0.361 0.088,0 0.11,0.084 0.11,0.195 0,0.5 -0.707,1.635 -0.931,1.969 -0.51,0.802 -1.771,2.407 -2.703,2.407 -0.574,0 -0.687,-0.443 -0.687,-1.079 0,-0.777 0.222,-1.718 0.4,-2.439 z"
   id="path41"
   style="fill:#ffffff" />
		<path
   d="m 325.845,160.679 c 0.753,-1.358 1.661,-3.022 1.661,-4.737 0,-1.108 -0.553,-1.579 -0.553,-2.383 0,-0.609 0.287,-1.272 0.818,-1.272 0.709,0 0.953,1.16 0.953,1.855 0,3.379 -3.389,8.42 -5.117,10.969 l -1.108,1.662 c -1.175,1.744 -3.036,4.544 -5.007,4.544 -0.666,0 -1.662,-0.556 -1.662,-1.525 0,-0.499 0.334,-0.913 0.753,-0.913 0.909,0 0.909,1.493 1.862,1.493 1.107,0 2.283,-1.798 2.748,-2.88 0.331,-0.746 0.553,-1.579 0.641,-2.437 l 0.156,-3.601 c 0,-1.023 0.022,-7.865 -1.064,-7.865 -0.619,0 -1.395,1.579 -1.616,2.159 -0.067,0.165 -0.222,0.721 -0.421,0.721 -0.088,0 -0.11,-0.139 -0.11,-0.222 0,-0.526 0.619,-1.718 0.841,-2.078 0.465,-0.774 1.196,-1.882 2.039,-1.882 1.041,0 1.372,2.104 1.506,3.073 0.244,1.605 0.31,3.853 0.31,5.484 l -0.109,3.188 -0.024,0.55 z"
   id="path42"
   style="fill:#ffffff" />
	</g>
</g>
</svg>
